<svg xmlns="http://www.w3.org/2000/svg" fill="#404040" id="gnt_svg_lg" class="gnt_n_lg_svg" preserveAspectRatio="xMinYMid meet" viewBox="0 0 328.25 46.58"><path d="M124.41 34.1l-3.69-2.34V17.84h3.92l1.59-3.36h-5.51v-5.7a2.8 2.8 0 011.03-2.71l-.33-.47-7.57 4.11v4.76h-2.15l-1.45 3.36h3.6V32.7l-1.03 1.17 7.71 5 6.37-6.26-.47-.47-2.02 1.96zm-3.69-17.61h3.88l-.33.7h-3.55v-.7zm-6.26-6.31l.79-.47v4.76h-.79v-4.29zm5.98 27.84l-6.73-4.35.75-.79v-15.7h-3.28l.33-.7h3.75v16.54l-.37.42 6.12 4.02-.57.56zm-12.1-30.18l-4.35-3.65-4.25 4.22 4.35 3.65 4.25-4.22zm-7.06 0l3.32 2.85-.51.56-3.36-2.9.55-.51zm8.69 26.17l-1.73-1.31V18.88l.84-.94-5.28-4.3-5.98 5.65.47.47 1.35-1.26 1.72 1.35v13.69l-.84 1.03 5.29 4.3 6.17-5.84-.47-.47-1.54 1.45zm-4.21 4.01l-4.39-3.6.61-.7V19.48l-1.87-1.45.56-.56 2.11 1.68v14.58l-.42.51 3.98 3.22-.58.56zm-31.8-3.73l-2.81-1.87V18.49h.09a5.19 5.19 0 003.79 1.26 4.82 4.82 0 004.44-4.76l-.09-.09c-1.8.79-3.9.32-5.19-1.17l-3.22 4.3-4.27-4.3-5.93 5.51.47.51 1.31-1.26 1.73 1.59v13.28l-.94 1.03 6.77 4.49 6.18-5.94-.47-.47-1.86 1.82zm-1.64-16.87a5 5 0 003.18 1.03c.68-.07 1.35-.19 2.01-.37l.05.05c-.61.61-1.43.96-2.29.98a4.75 4.75 0 01-3.51-1.08l.56-.61zm-2.25 20.65l-5.84-3.83.65-.65V19.77l-1.87-1.68.61-.56 2.06 1.92V33.6l-.37.47 5.38 3.4-.62.6zm-9.96-3.98l-3.69-2.34V17.84h3.93l1.59-3.36h-5.51v-5.7a2.8 2.8 0 011.03-2.71l-.34-.47-7.57 4.11v4.76H47.4l-1.45 3.36h3.6V32.7l-1.03 1.17 7.71 5 6.36-6.26-.47-.47-2.01 1.95zm-3.69-17.6h3.88l-.33.7h-3.55v-.7zm-6.26-6.31l.79-.47v4.76h-.79v-4.29zm5.99 27.84l-6.73-4.35.75-.79v-15.7h-3.28l.33-.7h3.75v16.54l-.37.42 6.12 4.02-.57.56zm22.02-17.66v12.15l-.98.94 7.76 5.42 11.63-6.82V19.52l.75-.84-7.21-5.05-11.95 6.73zm6.78 17.81l-6.89-4.81.7-.65V20.78l.79-.47v12.43l-.42.37 6.54 4.58-.72.48zm4.77-2.81l-.14.05-4.53-3.32V17.05h.09l4.58 3.18v15.13zm1.4-.84l-.79.47V19.85l-4.47-3.08.75-.42 4.49 3.18v14.99h.02zM47.34 21.81l-4.63-8.18-12.13 6.18V32.8l-.84.94 8.88 5.14 7.2-6.45-.47-.51-3.13 2.85-4.72-2.9v-4.59l9.84-5.47zM38.9 16.3l3.69 7.43-.7.37-3.69-7.43.7-.37zm.24 21.26l-.61.56-7.9-4.58.56-.65V20.24l.79-.42v12.93l-.37.42 7.53 4.39zm-1.69-10.98v-9.63l.09-.05 3.69 7.52-3.78 2.16zm-35.37-1.5l.19-.09c0-1.87.52-2.52 1.78-2.52h1.03v4.86a3.5 3.5 0 01-1.87 2.9l.37.51 5.24-2.71a4.98 4.98 0 003.36-4.44V12.7a2.15 2.15 0 011.12-2.38l-.28-.47L9 11.26a5.14 5.14 0 00-3.93 4.62v1.59H4.04a3.62 3.62 0 00-3.75 3.87 4.28 4.28 0 001.79 3.74zm3.6-8.97a3.77 3.77 0 011.96-3.51l.05.09a3.88 3.88 0 00-1.22 2.9v1.87h-.79v-1.35zM3.8 21.02h2.67v6.12c0 .76-.44 1.45-1.12 1.78l-.09-.05c.29-.46.43-1 .42-1.54v-5.51H3.76c-.6-.05-1.17.27-1.45.79l-.05-.05a1.5 1.5 0 011.46-1.54h.08zM19.23 2.33c-3.41 0-6.87 1.03-10.51 1.03-3.92 0-5.14-.51-5.14-2.24.01-.27.05-.53.1-.79L3.21.08c-.9.98-1.4 2.27-1.41 3.6 0 2.9 2.29 5.7 7.24 5.7 1.66-.07 3.31-.24 4.95-.52v21.21c-.89-.2-1.8-.3-2.71-.28-5.7 0-11.13 3.23-11.13 9.58 0 3.83 3.09 6.45 7.66 6.45 2.29.04 4.55-.49 6.59-1.54l-.23-1.49a8.57 8.57 0 01-6.31 2.24c-4.22 0-6.5-2.24-6.5-5.37 0-2.52 2.76-4.53 8.41-4.53 2.97.19 5.72 1.65 7.53 4.01l10.75-7.2v-20.6a8.18 8.18 0 00-8.82-9.01zM17.4 38.35a10.38 10.38 0 00-7.43-3.88c-1.33-.01-2.67.13-3.98.43l.09-.09c1.21-.68 2.59-1 3.98-.94 3.09.19 5.98 1.63 7.99 3.98l-.65.5zm3.56-4.86l-.09.05a14.13 14.13 0 00-6.31-3.36V8.78c.47-.05 1.41-.14 1.92-.14 3.98 0 4.49.65 4.49 4.44v20.41zm1.4 1.31l-.79-.84V12.79c0-3.93-.89-4.76-5.09-4.76-2.81 0-5.28.7-7.43.7-5.75 0-6.59-3.46-6.59-5.05-.01-.33.01-.65.09-.97l.09.05c.09 3.75 3.05 5.19 6.31 5.19 2.85 0 4.45-.7 7.71-.7 4.3 0 5.7 1.17 5.7 4.81V34.8zm155.79-.51l-2.81-1.87V18.49h.09a5.19 5.19 0 003.79 1.26 4.82 4.82 0 004.44-4.76l-.09-.09c-.65.27-1.35.4-2.05.37a5.08 5.08 0 01-3.13-1.54l-3.22 4.3-4.25-4.31-5.93 5.51.47.51 1.31-1.26 1.73 1.59v13.28l-.94 1.03 6.78 4.49 6.17-5.94-.47-.47-1.89 1.83zm-1.64-16.87c.94.64 2.04.99 3.18 1 .68-.05 1.35-.17 2.01-.35l.05.05c-.61.61-1.43.96-2.29.98a4.75 4.75 0 01-3.51-1.08l.56-.6zm-2.24 20.65l-5.84-3.83.65-.65V19.77l-1.87-1.68.61-.56 2.21 1.92V33.6l-.53.47 5.37 3.41-.6.59zm43.36-16.26L213 13.64l-12.1 6.18V32.8l-.84.94 8.88 5.14 7.2-6.45-.47-.51-3.13 2.85-4.72-2.9v-4.59l9.81-5.47zm-8.25-5.51l3.69 7.43-.86.37-3.69-7.43.86-.37zm.08 21.26l-.61.56-7.9-4.58.56-.65V20.24l.95-.42v12.93l-.53.42 7.53 4.39zm-1.68-10.98v-9.63l.09-.05 3.69 7.52-3.78 2.16zm-8-4.77l-4.63-8.18-12.1 6.18V32.8l-.84.94 8.88 5.14 7.2-6.45-.47-.51-3.13 2.85-4.72-2.9v-4.59l9.81-5.47zm-8.25-5.51l3.69 7.43-.86.37-3.69-7.43.86-.37zm.08 21.26l-.61.56-7.9-4.58.56-.65V20.24l.94-.42v12.93l-.53.42 7.54 4.39zm-1.69-10.98v-9.63l.09-.05 3.69 7.52-3.78 2.16zM162.39 9.01h.47a7.08 7.08 0 006.92-5.37l-.09-.09c-.86.5-1.85.74-2.85.7a11.2 11.2 0 01-6.31-2.29c-4.11 5.23-11.77 7.75-18.08 9.39v5.05h-.94a3.72 3.72 0 00-3.93 3.98 3.75 3.75 0 001.96 3.55l.09-.05c-.14-1.78.65-2.48 1.73-2.48h1.08V30a3.28 3.28 0 01-1.87 2.85l-.65-.02c-3.59 0-6.31 1.96-6.31 5.53a2.88 2.88 0 002.95 3.1c.19 0 .37 0 .56-.02l.42-1.22c-.38.12-.78.17-1.17.14a1.68 1.68 0 01-1.84-1.51v-.03c0-1.21 1.19-2.33 4.74-2.33 2.66 0 4.06 2.48 8.55 2.48 7.8 0 10.61-4.21 10.61-10.37v-7.21h3.41v17.48h.56V21.39l2.43-5h-2.42l-.02-7.38zm-19.33 2.8l.94-.19v4.77h-.94v-4.58zm-1.72 8.93c-.66-.08-1.3.23-1.64.79l-.09-.05a1.67 1.67 0 011.96-1.54H144v8.36c-.05.89-.4 1.73-1 2.38l-.09-.05c.1-.4.15-.81.15-1.23v-8.69h-1.74l.02.03zm5.09 17.66a10.68 10.68 0 01-3.18-1.17 7.9 7.9 0 00-3.98-1.35 7.97 7.97 0 00-2.66.42v-.14a4.2 4.2 0 012.94-.98c1.43.04 2.81.53 3.94 1.41.91.68 1.89 1.26 2.93 1.73l.01.08zm1.59-.98c-2.06 0-4.02-3.75-6.03-4.25v-.09l2.85-1.35a7.53 7.53 0 004.63-7.24V9.9a39.2 39.2 0 001.82-.7v20.85c-.01 6.01-1.08 7.37-3.27 7.37zm4.82-5.89c0 1.66-.58 3.26-1.64 4.53h-.09c.61-1.64.88-3.39.79-5.14v-22l.94-.33v22.94zm5.4-26.35a7.15 7.15 0 008.08 2.15v.09a5.28 5.28 0 01-3.46.98 7.75 7.75 0 01-5.33-2.66l.71-.56zm.14 11.21V7.42a9.55 9.55 0 003.46 1.54v7.43h-3.46zm4.32 3.55l-.53.79h-3.75l.15-.79h4.13zm106.94 14.35l-2.81-1.87V18.49h.09a5.19 5.19 0 003.79 1.26 4.81 4.81 0 004.45-4.76l-.09-.09c-1.8.79-3.9.32-5.19-1.17l-3.22 4.3-4.26-4.3-5.93 5.51.47.51 1.31-1.26 1.73 1.59v13.28l-.98 1.03 6.82 4.49 6.17-5.93-.47-.47-1.88 1.81zM268 17.42c.94.64 2.04 1 3.18 1.03.68-.07 1.35-.19 2.01-.37l.05.05c-.61.61-1.43.96-2.29.98a4.75 4.75 0 01-3.51-1.08l.56-.61zm-2.24 20.65l-5.84-3.83.65-.65V19.77l-1.87-1.68.61-.56 2.21 1.92V33.6l-.53.47 5.37 3.41-.6.59zM328.1 12.7a2.94 2.94 0 00-.19-.98l-1.03.47c.15.29.21.61.19.94a2.3 2.3 0 01-2.52 2.04l-.19-.03a3.9 3.9 0 01-2.94-1.41l-10.94 5.98v6.82l5.33 3.28s-4.25 6.17-6.12 8.83l.47.28a5.63 5.63 0 013.6-1.31 7.1 7.1 0 014.67 1.35l8.7-5.57v-7.67l-5.37-3.18 5.7-8.18c.37-.46.6-1.04.64-1.66zm-9.57 3.36a6.09 6.09 0 005.19 1.41l.05.05c-.63.28-1.32.42-2.01.42a5.6 5.6 0 01-4.02-1.41l.79-.47zm-7.43 10.1v-6.03l.79-.42v5.98l4.72 2.99-.47.65-5.04-3.17zm7.34 12.05a6.75 6.75 0 00-4.49-1.21c-.42 0-.89.05-1.31.09V37a6.54 6.54 0 012.99-.56c1.3-.01 2.57.45 3.55 1.31l-.74.46zm1.72-3.75a6.99 6.99 0 00-3.05-.7 8.1 8.1 0 00-4.11 1.26s3.51-5.14 5.33-7.71l1.82 1.12.01 6.03zm1.41 1.03l-.79-.65v-6.77l-2.06-1.31.47-.61 2.38 1.49v7.85zm-2.66-10.04l-1.59-.98V17.1a6.99 6.99 0 004.49 1.45c.76.03 1.51-.13 2.2-.47l.05.05c-1.46 2.06-3.66 5.23-5.15 7.34v-.02zm-8.79-12.81a2.94 2.94 0 00-.19-.98l-1.03.47c.15.29.21.61.19.94a2.3 2.3 0 01-2.52 2.04l-.19-.03a3.9 3.9 0 01-2.94-1.41l-10.93 5.98v6.82l5.33 3.28s-4.25 6.17-6.12 8.83l.47.28a5.63 5.63 0 013.6-1.31 7.1 7.1 0 014.67 1.35l8.69-5.56v-7.66l-5.37-3.18 5.7-8.18c.38-.48.61-1.07.64-1.68zm-9.58 3.37a6.08 6.08 0 005.19 1.41l.05.05c-.58.28-1.21.43-1.86.42a5.93 5.93 0 01-4.17-1.41l.79-.47zm-7.43 10.09v-6.02l.94-.42v5.98l4.57 2.99-.47.65-5.04-3.18zm7.34 12.06a6.75 6.75 0 00-4.49-1.21c-.42 0-.89.05-1.31.09v-.09a6.54 6.54 0 012.99-.56c1.3-.01 2.57.45 3.55 1.31l-.74.46zm1.73-3.75a6.99 6.99 0 00-3.05-.7 8.1 8.1 0 00-4.11 1.26s3.51-5.14 5.33-7.71l1.82 1.12.01 6.03zm1.4 1.03l-.79-.65v-6.76l-2.05-1.31.47-.61 2.38 1.49v7.85l-.01-.01zm-2.66-10.05l-1.6-.96v-7.38a6.99 6.99 0 004.49 1.45c.76.03 1.51-.13 2.2-.47l.05.05c-1.45 2.06-3.65 5.23-5.14 7.34v-.03zm-9.72-3.6l-4.63-8.18-12.12 6.2V32.8l-.84.94 8.88 5.14 7.2-6.45-.47-.51-3.13 2.85-4.72-2.9v-4.59l9.83-5.49zm-8.28-5.49l3.69 7.43-.86.37-3.69-7.43.86-.37zm.08 21.26l-.61.56-7.9-4.58.56-.65V20.23l.94-.42v12.93l-.53.42 7.54 4.4zm-1.68-10.98v-9.63l.09-.05 3.69 7.52-3.78 2.16zM246.65 2.52l-4.96 4.25V2.61h-.56v4.58l-1.92 1.73-6.35-6.44-6.92 6.73.42.42 1.73-1.64 4.02 3.92v5.51h-.79a3.87 3.87 0 00-4.1 3.63l-.01.2a4.05 4.05 0 001.96 3.75l.14-.05a1.96 1.96 0 011.73-2.52h1.08v7.38a8.34 8.34 0 00-7.2 8.92l.13.13a12.13 12.13 0 017.06-3.18v10.75h.14l4.77-2.52 2.11 1.82h.09v-9.76c.65.18 1.29.39 1.92.65v9.16h.55v-8.83a16.4 16.4 0 012.71 2.2l10.28-7.06V11.81a9.25 9.25 0 00-8.03-9.29zm-12.98 42.61l-.95.37V35.13a9.68 9.68 0 00-5.93 1.82l-.05-.09a6.62 6.62 0 015.57-2.52h1.37l-.01 10.79zm0-15.46l-.95.05v-7.9h-2.11c-.55-.1-1.09.22-1.26.75l-.09-.05a1.31 1.31 0 011.55-1.49h2.87v8.64h-.01zm-.15-12.2h-.8v-5.89l-4.11-4.06.76-.61 4.3 4.3-.15 6.26zm5.7-7.76l1.92-1.64v21.91c-.63-.15-1.27-.24-1.92-.28V9.71zm5.24 28.74a9.84 9.84 0 00-5.23-3.05v-.79a9.43 9.43 0 015.79 3.46l-.56.38zm3.13-4.86h-.04a15 15 0 00-5.86-3.47V7.56l.28-.19c3.88 1.03 5.61 2.94 5.61 6.03l.01 20.19zm1.4 1.35l-.79-.79v-20.9c0-3.36-2.06-5.19-5.7-6.36l.65-.56c3.92 1.36 5.84 2.85 5.84 6.87v21.74z"/></svg>