<?xml version="1.0" encoding="UTF-8"?>
<svg version="1.1" xmlns="http://www.w3.org/2000/svg" width="1031" height="388">
<path d="M0 0 C0.78632813 0.64453125 1.57265625 1.2890625 2.3828125 1.953125 C3.08664062 2.49453125 3.79046875 3.0359375 4.515625 3.59375 C17.1168 13.77352274 25.60886596 29.35414595 29.3828125 44.953125 C32.97436452 44.953125 35.28173676 43.93744541 38.6328125 42.640625 C65.43522129 32.8548472 92.79809368 35.47567813 118.4140625 47.359375 C143.04116846 60.09753326 160.20308659 81.57291324 168.6953125 107.640625 C176.08899122 133.88342458 173.15149821 160.82785245 160.3828125 184.890625 C157.61122264 189.72990888 154.56873263 194.37760142 151.3828125 198.953125 C152.011875 199.48679688 152.6409375 200.02046875 153.2890625 200.5703125 C163.75968028 209.68479605 170.89530824 219.19988724 176.3828125 231.953125 C176.81980469 232.95085937 177.25679688 233.94859375 177.70703125 234.9765625 C184.01292862 252.54457131 182.42762299 274.99601585 174.65234375 291.7265625 C165.01518301 311.48385088 149.29955713 325.6538693 128.6484375 333.21484375 C111.7504758 338.72124851 93.37195796 338.14878319 76.90625 331.5625 C74.45688967 330.74538095 74.45688967 330.74538095 72.375 331.5625 C69.79733903 333.36180844 67.4899894 335.37248841 65.1328125 337.453125 C49.26386923 350.97294154 29.60993121 361.17433212 9.43164062 366.41796875 C8.06362115 366.775297 6.7001283 367.15041747 5.34179688 367.54296875 C-17.65044862 374.08773817 -46.74726123 373.79994042 -69.6171875 366.953125 C-70.46587402 366.71174805 -71.31456055 366.47037109 -72.18896484 366.22167969 C-82.82594423 363.15164933 -92.67076288 359.39272539 -102.2019043 353.71020508 C-105.93753074 351.53403776 -105.93753074 351.53403776 -110.1484375 350.99609375 C-113.39193441 352.25346201 -116.50510744 353.71904235 -119.6171875 355.265625 C-143.51797744 366.73694934 -170.74031148 368.65319375 -195.86108398 359.90161133 C-222.22678549 350.20234406 -242.32574861 331.69362452 -254.4921875 306.515625 C-265.18587153 283.29128626 -265.80806492 255.10820479 -257.36010742 231.14746094 C-252.25403884 217.50255192 -244.77422692 206.41256315 -234.6171875 195.953125 C-233.93269531 195.19515625 -233.24820313 194.4371875 -232.54296875 193.65625 C-227.19554604 187.9233384 -221.30403322 183.93694953 -214.65625 179.8984375 C-212.2659754 178.36841597 -210.46527656 177.06712615 -208.6171875 174.953125 C-208.96652344 173.93992188 -209.31585938 172.92671875 -209.67578125 171.8828125 C-210.13565979 170.53133271 -210.59528159 169.17976553 -211.0546875 167.828125 C-211.28478516 167.16296875 -211.51488281 166.4978125 -211.75195312 165.8125 C-218.03871951 147.22553852 -215.35014676 126.96083631 -206.8671875 109.578125 C-203.51398779 103.0628893 -199.5750728 97.37152533 -194.6171875 91.953125 C-194.02679688 91.27121094 -193.43640625 90.58929688 -192.828125 89.88671875 C-178.81690377 74.65324206 -159.31823474 68.21460462 -139.171875 67.0390625 C-135.16343774 66.94215523 -131.55201243 67.23040205 -127.6171875 67.953125 C-127.66359375 66.98375 -127.71 66.014375 -127.7578125 65.015625 C-128.4213452 45.06942995 -122.23047777 25.89110397 -108.6171875 10.953125 C-107.54404297 9.74269531 -107.54404297 9.74269531 -106.44921875 8.5078125 C-78.85691921 -20.92997527 -31.91154236 -24.95768387 0 0 Z " fill="#FAE500" transform="translate(263.6171875,16.046875)"/>
<path d="M0 0 C0.78632813 0.64453125 1.57265625 1.2890625 2.3828125 1.953125 C3.08664062 2.49453125 3.79046875 3.0359375 4.515625 3.59375 C17.1168 13.77352274 25.60886596 29.35414595 29.3828125 44.953125 C32.97436452 44.953125 35.28173676 43.93744541 38.6328125 42.640625 C65.43522129 32.8548472 92.79809368 35.47567813 118.4140625 47.359375 C143.04116846 60.09753326 160.20308659 81.57291324 168.6953125 107.640625 C176.08899122 133.88342458 173.15149821 160.82785245 160.3828125 184.890625 C157.61122264 189.72990888 154.56873263 194.37760142 151.3828125 198.953125 C152.011875 199.48679688 152.6409375 200.02046875 153.2890625 200.5703125 C163.75968028 209.68479605 170.89530824 219.19988724 176.3828125 231.953125 C176.81980469 232.95085937 177.25679688 233.94859375 177.70703125 234.9765625 C184.01292862 252.54457131 182.42762299 274.99601585 174.65234375 291.7265625 C165.01518301 311.48385088 149.29955713 325.6538693 128.6484375 333.21484375 C111.7504758 338.72124851 93.37195796 338.14878319 76.90625 331.5625 C74.45688967 330.74538095 74.45688967 330.74538095 72.375 331.5625 C69.79733903 333.36180844 67.4899894 335.37248841 65.1328125 337.453125 C49.26386923 350.97294154 29.60993121 361.17433212 9.43164062 366.41796875 C8.06362115 366.775297 6.7001283 367.15041747 5.34179688 367.54296875 C-17.65044862 374.08773817 -46.74726123 373.79994042 -69.6171875 366.953125 C-70.46587402 366.71174805 -71.31456055 366.47037109 -72.18896484 366.22167969 C-82.82594423 363.15164933 -92.67076288 359.39272539 -102.2019043 353.71020508 C-105.93753074 351.53403776 -105.93753074 351.53403776 -110.1484375 350.99609375 C-113.39193441 352.25346201 -116.50510744 353.71904235 -119.6171875 355.265625 C-143.51797744 366.73694934 -170.74031148 368.65319375 -195.86108398 359.90161133 C-222.22678549 350.20234406 -242.32574861 331.69362452 -254.4921875 306.515625 C-265.18587153 283.29128626 -265.80806492 255.10820479 -257.36010742 231.14746094 C-252.25403884 217.50255192 -244.77422692 206.41256315 -234.6171875 195.953125 C-233.93269531 195.19515625 -233.24820313 194.4371875 -232.54296875 193.65625 C-227.19554604 187.9233384 -221.30403322 183.93694953 -214.65625 179.8984375 C-212.2659754 178.36841597 -210.46527656 177.06712615 -208.6171875 174.953125 C-208.96652344 173.93992188 -209.31585938 172.92671875 -209.67578125 171.8828125 C-210.13565979 170.53133271 -210.59528159 169.17976553 -211.0546875 167.828125 C-211.28478516 167.16296875 -211.51488281 166.4978125 -211.75195312 165.8125 C-218.03871951 147.22553852 -215.35014676 126.96083631 -206.8671875 109.578125 C-203.51398779 103.0628893 -199.5750728 97.37152533 -194.6171875 91.953125 C-194.02679688 91.27121094 -193.43640625 90.58929688 -192.828125 89.88671875 C-178.81690377 74.65324206 -159.31823474 68.21460462 -139.171875 67.0390625 C-135.16343774 66.94215523 -131.55201243 67.23040205 -127.6171875 67.953125 C-127.66359375 66.98375 -127.71 66.014375 -127.7578125 65.015625 C-128.4213452 45.06942995 -122.23047777 25.89110397 -108.6171875 10.953125 C-107.54404297 9.74269531 -107.54404297 9.74269531 -106.44921875 8.5078125 C-78.85691921 -20.92997527 -31.91154236 -24.95768387 0 0 Z M-91.6171875 27.953125 C-102.4612366 41.98200293 -104.62434761 55.74115573 -103.6171875 72.953125 C-102.5750161 79.6492814 -99.49496005 89.07535245 -94.6171875 93.953125 C-94.15733349 100.1611542 -94.15733349 100.1611542 -95.7421875 102.890625 C-98.48561885 104.4452361 -100.50103782 104.21759527 -103.6171875 103.953125 C-106.00390625 102.5625 -106.00390625 102.5625 -108.3046875 100.703125 C-119.94921993 92.0137005 -133.52721635 90.86012182 -147.6171875 91.953125 C-160.93529489 94.29756384 -172.46963303 101.59976011 -180.45703125 112.453125 C-189.08406812 125.29336592 -192.8789596 139.27549731 -189.8984375 154.6640625 C-187.54968223 163.39612847 -184.583228 170.92685073 -178.3046875 177.515625 C-175.87465106 180.16318388 -175.23586505 181.78682673 -175.2421875 185.390625 C-175.4278125 187.1540625 -175.4278125 187.1540625 -175.6171875 188.953125 C-180.3249535 191.00522813 -185.06325281 192.8837625 -189.8671875 194.703125 C-210.42406772 202.8280234 -224.89164231 217.82555636 -233.82788086 237.94384766 C-237.18597118 246.4922805 -238.1412378 254.56260233 -238.0546875 263.703125 C-238.04566406 264.84765137 -238.03664062 265.99217773 -238.02734375 267.17138672 C-237.61380646 287.4375859 -229.78384503 305.46104655 -215.6171875 319.953125 C-200.15586847 334.76698511 -181.40969568 340.62465374 -160.375 340.49438477 C-144.0125015 340.03029254 -129.00012291 334.96683468 -116.2421875 324.453125 C-113.54064837 322.36506038 -112.79609061 321.9696901 -109.2421875 321.640625 C-105.07335666 323.15002927 -102.15951965 325.28971276 -98.6171875 327.9140625 C-78.73423552 341.42825642 -55.15712153 347.12846332 -31.4296875 347.140625 C-30.19154297 347.15287109 -28.95339844 347.16511719 -27.67773438 347.17773438 C-15.71729824 347.19653024 -4.62228106 345.73100862 6.6953125 341.828125 C7.59048584 341.52318115 8.48565918 341.2182373 9.40795898 340.90405273 C25.56948206 335.2270028 39.74824249 326.90568655 52.8203125 315.828125 C53.39990723 315.33731445 53.97950195 314.84650391 54.57666016 314.34082031 C57.34802584 311.93170883 59.84509816 309.49703273 62.16796875 306.6484375 C64.76013235 303.4939527 65.40860898 303.09519635 69.3828125 302.515625 C73.96915666 302.55360715 77.01209467 304.99969468 80.75390625 307.421875 C84.74665971 309.7475204 88.92046721 310.86493904 93.3828125 311.953125 C94.33414063 312.22769531 94.33414063 312.22769531 95.3046875 312.5078125 C107.66586459 315.15663616 121.03154548 311.4345651 131.9453125 305.546875 C145.42864427 296.73085038 153.3544389 284.46649241 156.98730469 268.99951172 C159.72753938 254.82133441 155.83267163 241.76828513 148.3515625 229.73828125 C141.45907209 219.98759542 132.27932776 213.65765409 121.2578125 209.203125 C118.3828125 207.953125 118.3828125 207.953125 116.3828125 204.953125 C115.88671875 202.61328125 115.88671875 202.61328125 116.3828125 199.953125 C118.31626824 197.89415899 120.1616037 196.17809657 122.3203125 194.390625 C135.99712069 182.38221982 146.02457171 166.28120692 148.3828125 147.953125 C149.75871361 123.90671601 145.74884553 103.88499291 129.6484375 85.375 C116.63616214 71.46532634 98.92973233 61.4506892 79.65234375 60.48046875 C65.33642429 60.16765931 52.16368712 60.90320784 39.2578125 67.640625 C38.58113525 67.98657715 37.90445801 68.3325293 37.20727539 68.68896484 C30.54987882 72.20305396 24.90612527 76.6345739 19.43359375 81.7890625 C16.55754352 84.44675751 15.06020152 85.82285788 11.1328125 86.578125 C8.3828125 85.953125 8.3828125 85.953125 6.4453125 84.515625 C5.29228892 81.73480342 5.38395598 80.79830416 5.796875 77.90234375 C8.04099296 59.9764376 6.81129237 43.68122334 -4.6171875 28.953125 C-14.4371458 17.5652742 -26.5409354 9.95693066 -41.6171875 7.953125 C-61.78321843 6.68359279 -78.01329088 13.18768004 -91.6171875 27.953125 Z " fill="#1C1C1B" transform="translate(263.6171875,16.046875)"/>
<path d="M0 0 C11.22 0 22.44 0 34 0 C36.289375 3.980625 38.57875 7.96125 40.9375 12.0625 C46.52814273 21.76787035 52.17472341 31.43328559 58 41 C58.93228151 39.52809202 59.86282044 38.05506504 60.78710938 36.578125 C61.65747539 35.20260014 62.54367293 33.83699739 63.44335938 32.48046875 C67.03037497 26.95904395 69.64569727 21.38344427 72.01733398 15.23999023 C74.95017691 9.70763945 79.14088294 4.93109403 83 0 C94.22 0 105.44 0 117 0 C117 36.96 117 73.92 117 112 C106.77 112 96.54 112 86 112 C85.67 92.2 85.34 72.4 85 52 C74.23969247 68.4630408 74.23969247 68.4630408 63.98242188 85.22265625 C63.51255859 85.98964844 63.04269531 86.75664062 62.55859375 87.546875 C62.15954834 88.21557617 61.76050293 88.88427734 61.34936523 89.57324219 C60.90407471 90.04407227 60.45878418 90.51490234 60 91 C58.68 91 57.36 91 56 91 C54.63476562 89.55737305 54.63476562 89.55737305 53.40625 87.51171875 C52.931875 86.74021484 52.4575 85.96871094 51.96875 85.17382812 C51.4840625 84.35333984 50.999375 83.53285156 50.5 82.6875 C49.55295637 81.12837562 48.60498517 79.5698144 47.65625 78.01171875 C46.4496875 76.02785156 45.243125 74.04398437 44 72 C40.04 65.73 36.08 59.46 32 53 C31.67 72.47 31.34 91.94 31 112 C20.77 112 10.54 112 0 112 C0 75.04 0 38.08 0 0 Z " fill="#000000" transform="translate(496,275)"/>
<path d="M0 0 C31 0 31 0 38.8125 7.1875 C41.5859375 11.64453125 41.5859375 11.64453125 42.81152344 13.89306641 C44.56167706 16.9957422 46.700218 19.60148057 48.9375 22.375 C49.72511719 23.40753906 50.51273438 24.44007812 51.32421875 25.50390625 C55.17690497 30.55322641 59.0945684 35.55241927 63.00366211 40.55810547 C63.56448486 41.27756348 64.12530762 41.99702148 64.703125 42.73828125 C65.19458008 43.36774658 65.68603516 43.99721191 66.19238281 44.64575195 C68.82490206 48.07435583 71.40639757 51.54186343 74 55 C74.33 36.85 74.66 18.7 75 0 C85.56 0 96.12 0 107 0 C107 36.96 107 73.92 107 112 C78 112 78 112 70.0625 104.125 C68.21386719 101.46630859 68.21386719 101.46630859 66.984375 99.1484375 C64.04268444 93.93862103 60.55878245 89.40125214 56.8125 84.75 C55.64971793 83.25985775 54.48951137 81.76770181 53.33203125 80.2734375 C49.81458649 75.75638355 46.27820085 71.25428968 42.72583008 66.76464844 C39.40832928 62.55979381 36.21697283 58.28929711 33 54 C32.67 73.14 32.34 92.28 32 112 C21.44 112 10.88 112 0 112 C0 75.04 0 38.08 0 0 Z " fill="#000000" transform="translate(665,1)"/>
<path d="M0 0 C9.24 -0.0825 18.48 -0.165 28 -0.25 C30.88234375 -0.28641602 33.7646875 -0.32283203 36.734375 -0.36035156 C58.20580391 -0.51978857 77.66040452 1.18745018 94.00390625 16.78125 C105.15996041 29.18171724 108.95740422 44.54295728 108.17480469 60.91943359 C107.01396529 74.7360165 101.49848906 87.71064202 91.20703125 97.1953125 C80.21549039 106.18308573 66.48060907 112.14483793 52.1081543 112.11352539 C50.93119995 112.11340454 49.75424561 112.11328369 48.54162598 112.11315918 C47.31488159 112.10804321 46.08813721 112.10292725 44.82421875 112.09765625 C43.68907837 112.09664917 42.55393799 112.09564209 41.38439941 112.09460449 C37.1520893 112.08938029 32.91979362 112.07541902 28.6875 112.0625 C19.220625 112.041875 9.75375 112.02125 0 112 C0 75.04 0 38.08 0 0 Z M32 28 C32 46.48 32 64.96 32 84 C50.33575636 84.67334071 50.33575636 84.67334071 66.4375 77.8125 C73.24086614 70.34539082 75.36992987 63.0942953 75.28515625 53.17578125 C74.68053695 46.44214434 71.9528694 39.68514673 67 35 C55.52958616 27.36793476 46.5765407 28 32 28 Z " fill="#000000" transform="translate(791,1)"/>
<path d="M0 0 C10.786875 -0.0825 21.57375 -0.165 32.6875 -0.25 C36.06701904 -0.28641602 39.44653809 -0.32283203 42.9284668 -0.36035156 C45.64371101 -0.37204737 48.3589623 -0.38223707 51.07421875 -0.390625 C52.10419731 -0.40630524 52.10419731 -0.40630524 53.15498352 -0.42230225 C67.01649694 -0.62239002 79.35211113 1.52878001 90 11 C97.80153619 19.2478105 100.37898707 29.04735978 100.2109375 40.22265625 C99.34532885 51.61983687 95.32860542 60.28675096 86.875 67.9375 C84.37674778 70.05950941 81.97899911 71.62966041 79 73 C80.25205032 76.37711013 81.67062647 79.2309685 83.72265625 82.1875 C84.25737549 82.96295166 84.79209473 83.73840332 85.34301758 84.53735352 C85.91044678 85.35002686 86.47787598 86.1627002 87.0625 87 C87.64088623 87.83781006 88.21927246 88.67562012 88.81518555 89.53881836 C91.47915384 93.39365906 94.16200886 97.23487653 96.859375 101.06640625 C97.27823975 101.66388672 97.69710449 102.26136719 98.12866211 102.87695312 C99.24360699 104.46441023 100.36571305 106.04683078 101.48828125 107.62890625 C103 110 103 110 103 112 C76.55055125 116.38470179 76.55055125 116.38470179 66 112 C59.23998376 106.97564301 55.33658456 98.88061494 51.73364258 91.47070312 C51.36467361 90.73790634 50.99570465 90.00510956 50.61555481 89.25010681 C49.5625 87.09765625 49.5625 87.09765625 48.7297821 84.99171448 C47.76418576 82.68754682 47.76418576 82.68754682 45 80 C40.71 79.67 36.42 79.34 32 79 C32 89.89 32 100.78 32 112 C21.44 112 10.88 112 0 112 C0 75.04 0 38.08 0 0 Z M32 27 C32 35.58 32 44.16 32 53 C38.2184375 53.12375 38.2184375 53.12375 44.5625 53.25 C45.85615479 53.28641602 47.14980957 53.32283203 48.48266602 53.36035156 C55.2163599 53.42514384 59.60345639 53.17796925 65 49 C67.47686229 45.59431435 68.24064409 43.06492339 67.9375 38.9375 C67.20873826 35.000684 66.07844739 32.69364147 63 30 C56.28122681 26.78908204 49.75392687 26.62515438 42.4375 26.8125 C38.993125 26.874375 35.54875 26.93625 32 27 Z " fill="#000000" transform="translate(715,138)"/>
<path d="M0 0 C2.48313251 2.17506076 4.81615878 4.41962321 7.11328125 6.7890625 C7.685625 7.35238281 8.25796875 7.91570312 8.84765625 8.49609375 C19.10371694 19.3601168 22.64361034 34.36310331 22.46264648 48.91259766 C21.93392017 63.80654909 15.94764715 77.8475442 5.55078125 88.54296875 C-7.79538943 100.84112282 -23.41814257 106.43274227 -41.51171875 106.02734375 C-58.56064384 104.82365807 -74.56377732 97.78743103 -85.88671875 84.7890625 C-97.27873702 69.63825647 -99.4949148 54.27296384 -97.88671875 35.7890625 C-95.93587303 22.52817351 -88.39931528 9.76087181 -77.97265625 1.47265625 C-54.9961596 -15.53959469 -23.47577545 -17.98009324 0 0 Z M-58.88671875 25.7890625 C-64.30619258 33.82744408 -67.00579633 42.07150276 -65.88671875 51.7890625 C-63.7274349 61.07269008 -59.27915674 67.23772966 -51.94921875 73.1640625 C-44.04997887 77.3554959 -36.22989184 77.65934089 -27.6875 75.140625 C-20.67595269 72.13764403 -14.87936002 65.86398797 -11.94921875 58.8515625 C-9.24800135 50.01121466 -9.17423242 41.64981166 -13.078125 33.21484375 C-17.24294991 25.62283322 -22.30330737 20.9202917 -30.44921875 17.9140625 C-40.71229268 14.99424419 -51.57119522 17.95100157 -58.88671875 25.7890625 Z " fill="#000000" transform="translate(685.88671875,147.2109375)"/>
<path d="M0 0 C73.68412813 0 73.68412813 0 90.0390625 15.77734375 C102.74001066 30.17343837 104.77487507 45.82732591 104.18359375 64.23095703 C103.80873764 69.88470439 102.32385753 74.82483045 100 80 C99.649375 80.80050781 99.29875 81.60101563 98.9375 82.42578125 C92.41269352 95.54336095 81.05794961 103.91493441 67.6796875 109.17578125 C44.97381188 116.15965845 26.99015623 112 0 112 C0 75.04 0 38.08 0 0 Z M31 28 C31 46.48 31 64.96 31 84 C50.89627013 84.79744908 50.89627013 84.79744908 66.08203125 75.2109375 C72.09644994 68.27781942 72.86035939 60.82181446 72.4453125 51.88671875 C71.63498105 44.81408897 68.96287809 39.57801867 63.875 34.625 C53.59769749 26.91154481 44.18574098 28 31 28 Z " fill="#000000" transform="translate(734,275)"/>
<path d="M0 0 C10.56 0 21.12 0 32 0 C32.33 14.19 32.66 28.38 33 43 C35.97 39.37 38.94 35.74 42 32 C44.15563709 29.48838614 46.31672256 26.98693264 48.5 24.5 C53.09809624 19.22955333 57.60109698 13.90333127 62 8.46484375 C62.66 7.65144531 63.32 6.83804687 64 6 C65.02033325 4.45687134 65.02033325 4.45687134 66.0612793 2.88256836 C67.64913248 0.99279688 68.5526496 0.12063998 70.95303345 -0.52668762 C73.33015609 -0.69399356 75.63816627 -0.67508051 78.01953125 -0.5859375 C78.87810226 -0.57744781 79.73667328 -0.56895813 80.6212616 -0.56021118 C83.35297231 -0.52672797 86.0816878 -0.4514637 88.8125 -0.375 C90.66857704 -0.34489358 92.52470053 -0.31751895 94.38085938 -0.29296875 C98.92172007 -0.22695395 103.46035296 -0.12347181 108 0 C104.19535808 5.26960367 100.18235512 10.12268731 95.6875 14.8125 C91.79880685 18.92993981 88.03836975 23.0721325 84.5 27.5 C79.03439327 34.33456244 73.00508999 40.64221539 67 47 C68.31943693 50.60379944 69.91168137 53.58329262 72.08984375 56.73828125 C72.70375977 57.63272949 73.31767578 58.52717773 73.95019531 59.44873047 C74.60600586 60.39377441 75.26181641 61.33881836 75.9375 62.3125 C76.61264648 63.2936377 77.28779297 64.27477539 77.98339844 65.28564453 C79.34935021 67.26980444 80.71733159 69.25256874 82.08740234 71.23388672 C84.20797202 74.30078159 86.31873455 77.37428695 88.42797852 80.44897461 C89.73650805 82.35534387 91.04755026 84.2599596 92.359375 86.1640625 C94.2483842 88.9064024 96.13312634 91.65162432 98.015625 94.3984375 C98.51481445 95.12627441 99.01400391 95.85411133 99.52832031 96.60400391 C100.48145046 97.99385361 101.43396436 99.38412621 102.38574219 100.77490234 C104.1465038 103.34075338 105.90014636 105.87173972 107.8125 108.328125 C109 110 109 110 109 112 C103.62967586 112.37363109 98.26702504 112.64408741 92.88671875 112.82397461 C91.06213635 112.89897733 89.23844304 113.00104244 87.41699219 113.1315918 C72.8113319 114.15142843 72.8113319 114.15142843 68.28527832 110.68777466 C65.15307231 107.20961133 63.071491 103.20370924 61.02679443 99.02120972 C59.45602757 95.92920888 57.54114235 93.1554885 55.59375 90.28515625 C53.51548287 87.12642638 51.43812818 83.96747444 49.375 80.79882812 C48.7046875 79.78369141 48.034375 78.76855469 47.34375 77.72265625 C46.74755859 76.81265869 46.15136719 75.90266113 45.53710938 74.96508789 C45.02986328 74.31660889 44.52261719 73.66812988 44 73 C43.34 73 42.68 73 42 73 C40.26111909 74.71885317 40.26111909 74.71885317 38.5 76.875 C36.71066742 78.99035504 34.95980876 81.04019124 33 83 C32.62703444 86.00972657 32.62703444 86.00972657 32.5859375 89.5390625 C32.55032715 90.71162598 32.5147168 91.88418945 32.47802734 93.09228516 C32.44402832 94.58808105 32.4100293 96.08387695 32.375 97.625 C32.189375 104.740625 32.189375 104.740625 32 112 C21.44 112 10.88 112 0 112 C0 75.04 0 38.08 0 0 Z " fill="#000000" transform="translate(496,1)"/>
<path d="M0 0 C29.37 0 58.74 0 89 0 C89 8.91 89 17.82 89 27 C69.86 27 50.72 27 31 27 C31 32.28 31 37.56 31 43 C48.16 43 65.32 43 83 43 C83 51.25 83 59.5 83 68 C65.84 68 48.68 68 31 68 C31 73.61 31 79.22 31 85 C50.14 85 69.28 85 89 85 C89 93.91 89 102.82 89 112 C59.63 112 30.26 112 0 112 C0 75.04 0 38.08 0 0 Z " fill="#000000" transform="translate(631,275)"/>
<path d="M0 0 C10.23 0 20.46 0 31 0 C34.19536749 6.39073498 37.23546369 12.66715912 39.9765625 19.23828125 C40.33989685 20.10136398 40.7032312 20.96444672 41.07757568 21.85368347 C42.26319964 24.67197738 43.44414687 27.49220422 44.625 30.3125 C45.45751526 32.2944094 46.29036618 34.27617783 47.12353516 36.2578125 C48.4214498 39.345078 49.71905212 42.43247165 51.01535034 45.52041626 C54.09551456 52.85667558 57.19179321 60.18597444 60.296875 67.51171875 C61.15676903 69.54189778 62.01663272 71.57208967 62.87646484 73.60229492 C64.11224917 76.52007749 65.34852873 79.43764325 66.58673096 82.35440063 C67.73428721 85.05834673 68.87912378 87.76343036 70.0234375 90.46875 C70.35293396 91.2431694 70.68243042 92.01758881 71.02191162 92.81547546 C73.84206423 99.49393012 76.39263271 106.22084505 79 113 C67.45 113 55.9 113 44 113 C42.845 110.23625 41.69 107.4725 40.5 104.625 C40.13455078 103.75568848 39.76910156 102.88637695 39.39257812 101.99072266 C38.9662207 100.96277588 38.9662207 100.96277588 38.53125 99.9140625 C38.23798828 99.2123291 37.94472656 98.5105957 37.64257812 97.78759766 C37 96 37 96 37 94 C22.81 94.33 8.62 94.66 -6 95 C-8.31 100.94 -10.62 106.88 -13 113 C-24.55 113 -36.1 113 -48 113 C-40.51653975 94.99292378 -32.96858098 77.01378769 -25.39146423 59.04595947 C-22.97983588 53.32662592 -20.57168968 47.60583639 -18.16523743 41.88432312 C-16.43138675 37.7629613 -14.69582082 33.64232312 -12.95993042 29.52182007 C-12.1167341 27.51936279 -11.2742167 25.51661948 -10.43240356 23.51358032 C-9.25237736 20.70617908 -8.0698324 17.89985124 -6.88671875 15.09375 C-6.53739288 14.26103073 -6.18806702 13.42831146 -5.82815552 12.57035828 C-5.49903168 11.79110489 -5.16990784 11.0118515 -4.83081055 10.20898438 C-4.5481987 9.53750366 -4.26558685 8.86602295 -3.97441101 8.17419434 C-2.73532315 5.40942898 -1.35493662 2.70987324 0 0 Z M15 39 C13.42897511 42.80677259 11.8625157 46.61538764 10.30029297 50.42578125 C9.76802214 51.72219683 9.23449895 53.01809894 8.69970703 54.31347656 C7.93194036 56.17377949 7.16902341 58.03608163 6.40625 59.8984375 C5.94541016 61.01911621 5.48457031 62.13979492 5.00976562 63.29443359 C3.88344694 65.83098288 3.88344694 65.83098288 4 68 C11.59 68 19.18 68 27 68 C21.555 53.645 21.555 53.645 16 39 C15.67 39 15.34 39 15 39 Z " fill="#000000" transform="translate(932,0)"/>
<path d="M0 0 C10.56 0 21.12 0 32 0 C32.87398437 2.09988281 33.74796875 4.19976562 34.6484375 6.36328125 C41.41156756 22.6085122 48.18629048 38.84884517 54.98156738 55.08065796 C56.12333206 57.80851504 57.26435462 60.53668163 58.40527344 63.26489258 C61.92918683 71.68825199 65.46422509 80.10651768 69.03125 88.51171875 C69.94284814 90.66509587 70.85404295 92.81864314 71.76507568 94.97225952 C72.60396496 96.95039841 73.44860341 98.92601419 74.29345703 100.90161133 C74.78700684 102.06845459 75.28055664 103.23529785 75.7890625 104.4375 C76.21912598 105.44683594 76.64918945 106.45617187 77.09228516 107.49609375 C78 110 78 110 78 113 C66.78 113 55.56 113 44 113 C42.845 110.23625 41.69 107.4725 40.5 104.625 C40.13455078 103.75568848 39.76910156 102.88637695 39.39257812 101.99072266 C38.9662207 100.96277588 38.9662207 100.96277588 38.53125 99.9140625 C38.23798828 99.2123291 37.94472656 98.5105957 37.64257812 97.78759766 C37 96 37 96 37 94 C22.81 94 8.62 94 -6 94 C-6.99 97.3 -7.98 100.6 -9 104 C-10.32 106.97 -11.64 109.94 -13 113 C-24.22 113 -35.44 113 -47 113 C-42.02254809 100.40997458 -36.99773618 87.86377579 -31.625 75.4375 C-25.81889893 62.00751364 -20.18260782 48.50873483 -14.5625 35 C-14.12585022 33.95053192 -13.68920044 32.90106384 -13.23931885 31.8197937 C-11.22949251 26.98839129 -9.22070224 22.15656018 -7.21313477 17.32421875 C-4.81214468 11.54806963 -2.40588074 5.77411378 0 0 Z M15 39 C11.37 48.57 7.74 58.14 4 68 C11.59 68 19.18 68 27 68 C23.59794832 58.18943236 20.14643666 48.52212667 16 39 C15.67 39 15.34 39 15 39 Z " fill="#000000" transform="translate(933,137)"/>
<path d="M0 0 C1.34818298 0.97988796 2.68795324 1.97223004 4 3 C2.41128179 7.89854781 -0.43441574 11.56923995 -3.5 15.625 C-4.49004478 16.95017621 -5.4796451 18.27568462 -6.46875 19.6015625 C-6.90638672 20.18244629 -7.34402344 20.76333008 -7.79492188 21.36181641 C-8.90850866 22.87562665 -9.95756247 24.43634371 -11 26 C-14.33297784 25.38867492 -17.15450989 24.01771677 -20.17724609 22.5234375 C-29.35544972 17.99530896 -38.63958929 14.09403114 -49 17 C-51.71648577 18.5451157 -51.71648577 18.5451157 -53 21 C-53.56605858 23.59517741 -53.56605858 23.59517741 -52 26 C-45.91816658 29.59876406 -38.97539186 31.22783442 -32.1875 32.9375 C-18.0530719 36.66588203 -4.93203541 40.65277458 4 53 C8.03549825 61.07099649 7.97399292 71.04152832 5.81640625 79.671875 C1.97009585 90.64030083 -5.11871583 96.80612669 -15.1796875 101.921875 C-32.81064052 108.6616853 -55.25187864 106.66218337 -72.28125 99.1640625 C-79.26438379 95.91836948 -85.51011725 92.48988275 -91 87 C-89.60127971 83.95138679 -87.94076191 81.51336055 -85.8125 78.92578125 C-85.19632812 78.17619141 -84.58015625 77.42660156 -83.9453125 76.65429688 C-82.98238281 75.49510742 -82.98238281 75.49510742 -82 74.3125 C-81.03707031 73.1359082 -81.03707031 73.1359082 -80.0546875 71.93554688 C-75.25609812 66.12804906 -75.25609812 66.12804906 -73 65 C-70.99786826 66.1564552 -69.04773924 67.4033684 -67.125 68.6875 C-56.45245993 75.50754956 -43.6460014 80.02017559 -30.8125 77.4375 C-27.70951529 76.21734202 -27.70951529 76.21734202 -26.5625 72.875 C-26.2840625 71.451875 -26.2840625 71.451875 -26 70 C-29.21090581 66.17441197 -32.50898511 64.87162051 -37.1875 63.5625 C-37.88439941 63.35496094 -38.58129883 63.14742188 -39.29931641 62.93359375 C-43.01560591 61.83271656 -46.74787273 60.79004527 -50.48046875 59.74609375 C-75.23614403 52.77108518 -75.23614403 52.77108518 -82.34765625 41.94921875 C-86.90063704 33.28386821 -87.34957419 23.16793825 -84.875 13.75 C-81.42500231 3.69019366 -73.61586443 -3.46501739 -64.28515625 -8.140625 C-43.46457381 -15.97058763 -18.4096535 -11.60023488 0 0 Z " fill="#000000" transform="translate(579,147)"/>
<path d="M0 0 C10.23 0 20.46 0 31 0 C38.19987064 16.62192357 45.20538067 33.29456657 51.97729492 50.09423828 C52.61502183 51.67612684 53.25279936 53.257995 53.890625 54.83984375 C54.37466545 56.04045441 54.37466545 56.04045441 54.8684845 57.26531982 C57.52894656 63.8547471 60.22137665 70.43079808 62.921875 77.00390625 C63.33480804 78.00968719 63.74774109 79.01546814 64.17318726 80.05172729 C65.81008918 84.03817545 67.44716826 88.02453982 69.0894165 92.00878906 C70.22603527 94.76661379 71.35938657 97.52576159 72.4921875 100.28515625 C72.83312439 101.10947647 73.17406128 101.93379669 73.52532959 102.78309631 C73.83778625 103.5456926 74.15024292 104.30828888 74.47216797 105.09399414 C74.88062454 106.08575401 74.88062454 106.08575401 75.29733276 107.09754944 C76 109 76 109 77 113 C65.78 113 54.56 113 43 113 C40.69 107.06 38.38 101.12 36 95 C22.14 94.67 8.28 94.34 -6 94 C-6.33 95.98 -6.66 97.96 -7 100 C-7.77426445 102.12661148 -8.60880431 104.23217982 -9.5 106.3125 C-10.16515625 107.88451172 -10.16515625 107.88451172 -10.84375 109.48828125 C-12 112 -12 112 -13 113 C-15.44830426 113.08843793 -17.86820599 113.11528752 -20.31640625 113.09765625 C-21.04746078 113.0962413 -21.77851532 113.09482635 -22.53172302 113.09336853 C-24.87535632 113.08775408 -27.21889539 113.07519922 -29.5625 113.0625 C-31.14778508 113.05748686 -32.73307166 113.05292363 -34.31835938 113.04882812 C-38.2122761 113.03777997 -42.10612205 113.02050572 -46 113 C-33.28828855 80.90170159 -20.06494189 49.00700638 -6.95068359 17.07177734 C-6.63094574 16.29296707 -6.31120789 15.5141568 -5.98178101 14.71174622 C-5.39019474 13.27082133 -4.79843238 11.82996871 -4.20645142 10.38920593 C-2.78740956 6.93247696 -1.38781119 3.46952799 0 0 Z M15 39 C13.43127245 42.96847107 11.86474846 46.93780246 10.30029297 50.90795898 C9.76737525 52.25943702 9.23384789 53.61067483 8.69970703 54.96166992 C7.93362954 56.89960435 7.16972314 58.83838209 6.40625 60.77734375 C5.94541016 61.94515381 5.48457031 63.11296387 5.00976562 64.31616211 C3.94130996 66.67807291 3.94130996 66.67807291 4 68 C11.26 68 18.52 68 26 68 C25.22074679 64.10373397 24.32698304 60.93163139 22.93359375 57.26171875 C22.53076172 56.19501953 22.12792969 55.12832031 21.71289062 54.02929688 C21.29201172 52.92650391 20.87113281 51.82371094 20.4375 50.6875 C20.01275391 49.56537109 19.58800781 48.44324219 19.15039062 47.28710938 C18.10371244 44.52340854 17.05347135 41.76111699 16 39 C15.67 39 15.34 39 15 39 Z " fill="#000000" transform="translate(937,274)"/>
<path d="M0 0 C0.79994888 -0.00145523 1.59989777 -0.00291046 2.42408752 -0.00440979 C4.11096855 -0.00275456 5.79786526 0.00876461 7.48461914 0.02954102 C10.05485812 0.0584638 12.62302796 0.05014925 15.19335938 0.03710938 C16.83724953 0.04334864 18.48113321 0.05174105 20.125 0.0625 C20.88767685 0.05956436 21.6503537 0.05662872 22.43614197 0.05360413 C27.76322623 0.14690968 32.17297417 1.06581109 36.125 4.9765625 C42.14749253 15.89701575 36.99469263 32.71507794 35.42602539 44.39648438 C33.24973777 60.7539198 31.55989394 77.16757284 29.82348633 93.57641602 C29.11761351 100.21928505 28.3811449 106.85832982 27.62890625 113.49609375 C27.51154114 114.55705261 27.39417603 115.61801147 27.27325439 116.71112061 C26.93174708 119.74473716 26.56730341 122.77467589 26.1953125 125.8046875 C26.04798927 127.14769676 26.04798927 127.14769676 25.89768982 128.51783752 C25.21960684 133.78694097 24.11088298 137.287529 20.62890625 141.49609375 C16.24517171 144.41858345 12.85113026 145.05561775 7.62890625 144.49609375 C3.98438169 143.02426652 1.10693784 141.56028982 -1.37109375 138.49609375 C-4.76311656 128.25880437 -5.36302337 116.96333101 -6.44882202 106.29177856 C-6.85802714 102.27135197 -7.28409353 98.25275888 -7.70896912 94.23396301 C-7.92982592 92.14338336 -8.14984153 90.05271467 -8.36903381 87.96195984 C-9.43956737 77.76586032 -10.57695325 67.57775307 -11.73638916 57.39141846 C-12.04971913 54.63661947 -12.36065067 51.88155743 -12.67138672 49.12646484 C-13.67909518 40.24003964 -14.75276499 31.36982964 -15.984375 22.51147461 C-16.85273972 15.74053229 -16.80903399 10.66067624 -13.37109375 4.49609375 C-9.27818862 0.2425513 -5.64551904 -0.08293651 0 0 Z " fill="#010100" transform="translate(216.37109375,120.50390625)"/>
<path d="M0 0 C32.34 0 64.68 0 98 0 C98 9.24 98 18.48 98 28 C87.11 28 76.22 28 65 28 C65 55.72 65 83.44 65 112 C54.44 112 43.88 112 33 112 C33 84.28 33 56.56 33 28 C22.11 28 11.22 28 0 28 C0 18.76 0 9.52 0 0 Z " fill="#000000" transform="translate(815,138)"/>
<path d="M0 0 C10.56 0 21.12 0 32 0 C32 36.96 32 73.92 32 112 C21.44 112 10.88 112 0 112 C0 75.04 0 38.08 0 0 Z " fill="#000000" transform="translate(614,1)"/>
<path d="M0 0 C10.23 0 20.46 0 31 0 C31 36.96 31 73.92 31 112 C20.77 112 10.54 112 0 112 C0 75.04 0 38.08 0 0 Z " fill="#000000" transform="translate(850,275)"/>
<path d="M0 0 C6.57983776 4.4217448 10.10860748 9.2678922 12 17 C13.09432688 24.37098333 11.55763399 31.97293944 7.55859375 38.26953125 C3.46159884 43.39315134 -0.90241071 45.80188736 -7 48 C-7.99 48.495 -7.99 48.495 -9 49 C-17.52718318 49.90305238 -25.09879979 48.70876261 -32.0390625 43.45703125 C-37.10281726 38.74881672 -40.62493211 33.8313897 -41.30859375 26.84765625 C-41.51510089 16.24290731 -39.89738092 10.00142 -32.484375 2.24609375 C-23.26814196 -6.08619241 -10.43937119 -6.55133723 0 0 Z " fill="#020200" transform="translate(242,289)"/>
<path d="M0 0 C0.66 0.33 1.32 0.66 2 1 C-3.17703948 6.83444132 -8.40280876 12.56478535 -14 18 C-14.99 17.67 -15.98 17.34 -17 17 C-11.6749489 10.87372593 -6.27309565 5.16205691 0 0 Z " fill="#474747" transform="translate(81,97)"/>
<path d="M0 0 C0 3 0 3 -2.40625 5.69921875 C-3.4299968 6.70302243 -4.4616054 7.69885649 -5.5 8.6875 C-6.02464844 9.19861328 -6.54929687 9.70972656 -7.08984375 10.23632812 C-8.38660904 11.49772708 -9.69246117 12.74977212 -11 14 C-11.66 13.67 -12.32 13.34 -13 13 C-11.58791833 11.39179588 -10.17013964 9.78859292 -8.75 8.1875 C-7.96109375 7.29417969 -7.1721875 6.40085938 -6.359375 5.48046875 C-4.34120555 3.35871775 -2.40083295 1.65745577 0 0 Z " fill="#E7D809" transform="translate(54,222)"/>
<path d="M0 0 C0 3 0 3 -2.1875 5.48046875 C-3.115625 6.37378906 -4.04375 7.26710938 -5 8.1875 C-5.928125 9.08855469 -6.85625 9.98960938 -7.8125 10.91796875 C-8.534375 11.60503906 -9.25625 12.29210938 -10 13 C-10.66 12.67 -11.32 12.34 -12 12 C-8.27653164 7.57905197 -4.70478962 3.42166518 0 0 Z " fill="#F0DF07" transform="translate(182,35)"/>
<path d="M0 0 C0.66 0.33 1.32 0.66 2 1 C-1.96 4.96 -5.92 8.92 -10 13 C-10.66 12.67 -11.32 12.34 -12 12 C-8.27653164 7.57905197 -4.70478962 3.42166518 0 0 Z " fill="#E9DA09" transform="translate(96,116)"/>
<path d="M0 0 C1.39195915 4.17587745 -0.17676781 6.13474776 -2 10 C-2.33 10 -2.66 10 -3 10 C-2.67 7.36 -2.34 4.72 -2 2 C-1.34 2 -0.68 2 0 2 C0 1.34 0 0.68 0 0 Z " fill="#747474" transform="translate(429,185)"/>
</svg>
